<svg id="Layer_1" data-name="Layer 1" xmlns="http://www.w3.org/2000/svg" viewBox="0 0 2495.75 329.94"><defs><style>.cls-1{fill:#30384c;}.cls-2{fill:#ff4a4a;}</style></defs><title>UI-Logo-Horizontal-Color</title><path id="Path_366" data-name="Path 366" class="cls-1" d="M570,100.24V189c0,51.55-35.52,69.88-77.9,69.88-45.25,0-77.9-21.19-77.9-69.31V100.24h38.38v89.93c0,22.34,16,36.09,39,36.09,20.62,0,39.52-10.88,39.52-38.95V100.24Z"/><path id="Path_367" data-name="Path 367" class="cls-1" d="M686.8,100.24c32.08,0,51,21.77,51,44.68,0,17.19-9.16,29.79-26.92,38.38,16,8,20.62,27.5,43,73.32h-43C694.25,223.4,688,193,666.76,193H655.3v63.58H616.35V100.24ZM655.87,164.4h20.62c10.89,0,21.2-4.59,21.2-17.76,0-11.46-7.45-17.76-22.34-17.76H655.87Z"/><path id="Path_368" data-name="Path 368" class="cls-1" d="M851.77,100.24c36.66,0,51.56,21.77,51.56,39,0,13.18-8,24.63-21.2,30.94,22.34,5.72,33.23,21.76,33.23,40.1,0,17.75-9.74,45.82-55,45.82H784.18V100.24Zm-28.64,61.87h20.62c14.32,0,20-8.6,20-17.19,0-8-5.73-16.61-20-16.61H823.13Zm0,65.87H844.9c21.77,0,29.21-5.73,29.21-19.48,0-11.45-10.31-17.75-24.06-17.75h-27.5V228Z"/><path id="Path_369" data-name="Path 369" class="cls-1" d="M1113,256.62h-41.82l-12.6-30.93H988.68l-11.46,30.93H936l63-156.38h45.25Zm-91.65-119.14-22.92,60.71h48.12Z"/><path id="Path_370" data-name="Path 370" class="cls-1" d="M1300.29,256.62h-32.65l-86.5-100.24V256.62h-39V100.24h35.51l83.63,95.66V100.24h39Z"/><path id="Path_371" data-name="Path 371" class="cls-1" d="M1462.39,256.62h-39V100.24h39Z"/><path id="Path_372" data-name="Path 372" class="cls-1" d="M1668.61,256.62H1636l-86.5-100.24V256.62h-39V100.24H1546l83.63,95.66V100.24h39Z"/><path id="Path_373" data-name="Path 373" class="cls-1" d="M1823.26,140.91c-22.91-10.31-36.08-13.74-49.26-13.74-13.74,0-22.91,5.15-22.91,12.6,0,23.48,79.62,17.18,79.62,71.6,0,29.78-25.2,47.54-60.14,47.54-27.5,0-40.67-6.87-56.14-14.89v-33.8c22.34,14.89,36.09,20,53.27,20,14.89,0,22.91-5.15,22.91-14.32,0-25.77-79.62-16-79.62-72.17,0-26.92,23.49-44.68,59.58-44.68,17.18,0,33.22,3.44,52.7,12Z"/><path id="Path_374" data-name="Path 374" class="cls-1" d="M1909.76,256.62h-39V100.24h39Z"/><path id="Path_375" data-name="Path 375" class="cls-1" d="M2105.66,144.92c-20-9.74-38.95-14.32-58.42-14.32-42.39,0-57.29,26.35-57.29,49.26,0,27.5,21.77,45.83,53.85,45.83,9.74,0,14.32-1.15,25.77-5.73V201.63h-22.91V173h61.87v64.16c-11.46,12-40.67,21.19-65.88,21.19-54.41,0-93.37-33.22-93.37-80.19,0-47.55,38.38-80.2,94-80.2,23.48,0,45.82,5.16,61.86,12.6v34.37Z"/><path id="Path_376" data-name="Path 376" class="cls-1" d="M2311.3,256.62h-39v-63h-77.9v63H2155.5V100.24h38.95v63h77.9v-63h39Z"/><path id="Path_377" data-name="Path 377" class="cls-1" d="M2495.75,128.88H2439V256.62h-38.95V128.88h-56.71V100.24h152.37Z"/><path id="Path_378" data-name="Path 378" class="cls-2" d="M330.51,165.54h0l-28.06,5.73L291,173.56l-59.57,12-34.95,6.88L193,193l-27.5-27.5h165l-28.07-5.73C299,89.36,242.87,32.65,173,28.64L166.69,0h-1.15l5.73,28.64,2.29,11.46,12,59L192.47,134l.57,3.44L165.54,165h0V107.69h0V0l-5.73,28.64c-70.45,3.44-127.16,59-131.17,128.88L0,163.83V165H.57l28.07-5.73L40.1,157l60.14-12,36.66-7.44h.58L165,165H.57l28.64,5.72c2.87,70.46,59,127.17,128.89,130.6l5.72,28.64H165l-5.73-28.07L157,290.42l-12-59.58-6.87-35.51-.58-2.29h0l27.5-27.5h0V223.4h0V329.94l5.73-28.07A136.26,136.26,0,0,0,301.3,172.42l28.64-5.73ZM290.41,157l-59-12.6-3.43-.57,30.35-63c18.34,20.62,30.37,47,32.09,76.18ZM253.75,76.76l4.59-4.59-2.29,6.3h0l-31.5,64.73-30.36-6.3h-.58l-.57.58.57-1.15h0l60.15-59.57ZM187.31,98.52l-12-57.85C205.07,43,231.42,55.56,252,75ZM40.67,155.23A121.16,121.16,0,0,1,75.61,78.48L99.1,143.2Zm95.66-18.9L76.76,76.76l-3.44-3.44L77.9,75h0l65.3,31.5Zm8-36.66-.57,3.44-63-30.36A123,123,0,0,1,157,40.1ZM40.1,173.56l59,12.6,4,.58-30.36,63A128.23,128.23,0,0,1,40.1,173.56Zm36.66,80.2-4.58,4.58,1.71-5.15h.58L106,187.31l30.36,6.3h0l1.14-1.14h0l-.57.57h0l-.57.57L76.76,253.76ZM143.2,232l12,58.43c-29.79-2.29-56.14-14.9-76.76-34.37Zm43-.57.57-3.44,62.44,30.36c-21.19,18.9-47.54,30.36-75.61,32.08ZM252,256.05h0l-64.73-30.93,6.3-30.94h0l60.15,60.15,4,4Zm4-4L232,187.31l58.43-12A126.14,126.14,0,0,1,256.05,252Z"/></svg>